<svg width="24" height="25" viewBox="0 0 24 25" fill="none" xmlns="http://www.w3.org/2000/svg">
<path d="M12 2.51128C17.52 2.51128 22 6.99128 22 12.5113C22 18.0313 17.52 22.5113 12 22.5113C6.48 22.5113 2 18.0313 2 12.5113C2 6.99128 6.48 2.51128 12 2.51128ZM12 17.5113C10.26 17.5113 8.65961 18.0713 7.34961 19.0113C8.65961 19.9513 10.26 20.5113 12 20.5113C13.74 20.5113 15.3404 19.9513 16.6504 19.0113C15.3404 18.0713 13.74 17.5113 12 17.5113ZM12 4.51128C7.58 4.51128 4 8.09128 4 12.5113C4 14.4613 4.70035 16.2414 5.86035 17.6314C7.55033 16.3115 9.68007 15.5113 12 15.5113C14.3199 15.5113 16.4497 16.3115 18.1396 17.6314C19.2996 16.2414 20 14.4613 20 12.5113C20 8.09128 16.42 4.51128 12 4.51128ZM12 6.51128C13.93 6.51128 15.5 8.08128 15.5 10.0113C15.5 11.9413 13.93 13.5113 12 13.5113C10.07 13.5113 8.5 11.9413 8.5 10.0113C8.5 8.08128 10.07 6.51128 12 6.51128ZM12 8.51128C11.17 8.51128 10.5 9.18128 10.5 10.0113C10.5 10.8413 11.17 11.5113 12 11.5113C12.83 11.5113 13.5 10.8413 13.5 10.0113C13.5 9.18128 12.83 8.51128 12 8.51128Z" fill="#E10098"/>
</svg>
