<svg width="134" height="122" viewBox="0 0 134 122" fill="none" xmlns="http://www.w3.org/2000/svg">
<g opacity="0.358584">
<path d="M0.5 119.525H133.5" stroke="#C0C0C0" stroke-width="3.8"/>
<path opacity="0.365583" fill-rule="evenodd" clip-rule="evenodd" d="M97.0173 12.2511L15.0636 31.0876C11.0157 32.0191 8.48853 36.0948 9.42087 40.193L11.3774 48.802C11.605 49.8058 12.4764 50.563 13.4934 50.5474C18.5058 50.4671 23.0706 53.9246 24.2397 59.0687C25.4087 64.2127 22.7914 69.3221 18.2405 71.4387C17.3172 71.8664 16.8613 72.9329 17.0883 73.9349L19.0448 82.5439C19.9754 86.6427 24.0129 89.2106 28.0608 88.279L110.013 69.445C114.061 68.5135 116.588 64.4359 115.655 60.3378L113.726 51.8368C113.484 50.7781 112.522 50.0503 111.449 50.1091C106.275 50.3932 101.488 46.8746 100.286 41.5877C99.0851 36.3044 101.878 31.0437 106.66 29.039C107.652 28.6229 108.206 27.5496 107.966 26.4884L106.033 17.9862C105.102 13.8899 101.066 11.3214 97.0173 12.2511Z" fill="#767676"/>
<path fill-rule="evenodd" clip-rule="evenodd" d="M112.542 61.6901C112.508 60.5945 111.702 59.6957 110.636 59.5447C105.497 58.8266 101.467 54.4281 101.299 48.9757C101.132 43.5252 104.886 38.8679 109.97 37.8079C111.025 37.589 111.773 36.6369 111.741 35.5415L111.472 26.7728C111.343 22.5458 107.868 19.2302 103.71 19.3675L19.5611 22.1685C15.4048 22.308 12.1398 25.8452 12.2684 30.074L12.5413 38.9529C12.5728 39.9895 13.2859 40.9057 14.2865 41.0862C19.2291 41.9734 23.0525 46.2692 23.2132 51.5739C23.3775 56.8809 19.8247 61.4226 14.9466 62.6361C13.9591 62.8825 13.3047 63.8468 13.3366 64.8794L13.6092 73.7603C13.738 77.9872 17.2128 81.3009 21.3689 81.1634L105.52 78.3626C109.676 78.227 112.941 74.6859 112.811 70.4588L112.542 61.6901Z" fill="#767676"/>
</g>
<g opacity="0.734747">
<ellipse cx="3.42799" cy="3.45255" rx="3.42799" ry="3.45255" transform="matrix(0.965388 0.260817 -0.256834 0.966455 72.0625 39.106)" fill="#A1A1A1"/>
<ellipse cx="3.42798" cy="3.45255" rx="3.42798" ry="3.45255" transform="matrix(0.965388 0.260817 -0.256834 0.966456 55.7891 39.9697)" fill="#A1A1A1"/>
<path d="M67.3359 64.8458C69.5299 64.6911 71.5583 65.1963 73.3816 66.2277C73.7093 65.727 75.7356 62.7183 76.1487 62.1433C73.4622 60.4221 70.3188 59.5179 66.9827 59.7531C63.6465 59.9883 60.6586 61.3249 58.2033 63.3744C61.3753 66.8695 58.2381 63.4402 61.5073 67.0308C63.2029 65.7854 65.1418 65.0005 67.3359 64.8458Z" fill="#A1A1A1"/>
<mask id="mask0_13221_99010" style="mask-type:luminance" maskUnits="userSpaceOnUse" x="58" y="59" width="19" height="9">
<path d="M67.3359 64.8458C69.5299 64.6911 71.5583 65.1963 73.3816 66.2277C73.7093 65.727 75.7356 62.7183 76.1487 62.1433C73.4622 60.4221 70.3188 59.5179 66.9827 59.7531C63.6465 59.9883 60.6586 61.3249 58.2033 63.3744C61.3753 66.8695 58.2381 63.4402 61.5073 67.0308C63.2029 65.7854 65.1418 65.0005 67.3359 64.8458Z" fill="white"/>
</mask>
<g mask="url(#mask0_13221_99010)">
</g>
</g>
</svg>
