<svg width="33" height="31" viewBox="0 0 33 31" fill="none" xmlns="http://www.w3.org/2000/svg">
<path d="M5.62089 17.0076C6.49357 16.9738 6.68204 16.3282 6.71651 15.9459C6.73117 15.7809 6.70624 15.6173 6.67911 15.4793C6.65857 15.3744 6.67397 15.2893 6.72604 15.2196C6.84044 15.0648 7.09491 15.0362 7.09711 15.0355C7.12498 15.0325 7.14845 15.0142 7.15798 14.9878C7.16751 14.9614 7.16165 14.932 7.14258 14.9122C7.12938 14.8983 6.89618 14.6532 6.60357 14.5637C6.57424 14.5608 5.98096 14.5072 5.81523 15.1228C5.80643 15.1543 5.77783 15.1749 5.74703 15.1749C5.74116 15.1749 5.73456 15.1741 5.72869 15.1727C5.69129 15.1624 5.66856 15.1235 5.67882 15.0861C5.78223 14.7017 6.03376 14.5417 6.2259 14.475C6.33883 14.4361 6.44444 14.4236 6.51777 14.4214C6.43344 14.125 6.17823 13.5674 5.44709 13.4897C5.41702 13.4867 5.38622 13.5029 5.37302 13.5315C5.35982 13.5594 5.36569 13.5931 5.38769 13.6151C5.46322 13.6899 5.65829 13.9203 5.65609 14.0817C5.65609 14.1228 5.64216 14.1551 5.61356 14.1815C5.47422 14.3128 5.44489 14.5102 5.44782 14.6687C5.13102 14.3378 4.56854 14.0362 3.59906 14.2138C3.56899 14.2189 3.54626 14.2431 3.54039 14.2725C3.53453 14.3026 3.54846 14.3326 3.57413 14.3488C3.57706 14.3502 3.8528 14.5278 3.90047 15.213C3.9474 15.8865 4.55461 16.2328 5.05108 16.301C4.88315 16.3994 4.56341 16.527 4.0376 16.527C4.01853 16.527 4.00093 16.5343 3.987 16.5468C3.8264 16.6979 3.7494 16.8616 3.75893 17.034C3.77506 17.3282 4.0398 17.5307 4.05153 17.5395C4.06473 17.549 4.08013 17.5541 4.09554 17.5541C4.10067 17.5541 4.1058 17.5541 4.11094 17.5527C4.68294 17.4294 4.91028 17.0846 4.97921 16.9496L5.35175 16.9936C5.45369 17.0054 5.53949 17.0098 5.62016 17.0068L5.62089 17.0076ZM6.45984 14.7207C6.50604 14.7207 6.54344 14.7582 6.54344 14.8044C6.54344 14.8506 6.50604 14.888 6.45984 14.888C6.41364 14.888 6.37624 14.8506 6.37624 14.8044C6.37624 14.7582 6.41364 14.7207 6.45984 14.7207Z" fill="#E10098"/>
<path d="M8.90787 15.5175C8.90421 13.5513 7.30992 11.96 5.34602 11.963C3.38066 11.9659 1.79077 13.5601 1.79297 15.5263C1.7959 17.4911 3.39093 19.0831 5.35482 19.0809C7.31872 19.0787 8.90934 17.483 8.90787 15.5175ZM2.38551 15.5256C2.38331 13.8873 3.70993 12.558 5.34602 12.5558C6.98285 12.5543 8.31166 13.8793 8.3146 15.5175C8.31606 17.1551 6.99165 18.4844 5.35409 18.4866C3.71727 18.4888 2.38845 17.1639 2.38478 15.5256H2.38551Z" fill="#E10098"/>
<path d="M17.0008 27.053C16.8498 27.053 16.7266 27.1762 16.7266 27.3274C16.7266 27.4785 16.8498 27.6018 17.0008 27.6018C17.1519 27.6018 17.2751 27.4785 17.2751 27.3274C17.2751 27.1762 17.1519 27.053 17.0008 27.053Z" fill="#E10098"/>
<path d="M17.6065 25.6157H17.022C17.0499 25.5672 17.0829 25.5042 17.1173 25.4257C17.1907 25.2576 17.1965 25.1006 17.1335 24.9598C17.0447 24.7602 16.8445 24.6553 16.7558 24.6172C16.6869 24.4572 16.5285 24.345 16.3429 24.345H15.8039C15.6191 24.345 15.46 24.4572 15.391 24.6172C15.3023 24.6553 15.1021 24.7602 15.0134 24.9598C14.9503 25.1006 14.9562 25.2576 15.0295 25.4257C15.064 25.5042 15.097 25.5672 15.1248 25.6157H14.5426C14.2947 25.6157 14.0938 25.8167 14.0938 26.0647V26.6039C14.0938 26.8519 14.2947 27.0529 14.5426 27.0529H15.3544V27.8739C15.3544 28.1218 15.5553 28.3229 15.8032 28.3229H16.3422C16.5901 28.3229 16.791 28.1218 16.791 27.8739V27.6912C16.6883 27.6332 16.6121 27.5335 16.5849 27.4153C16.5835 27.4153 16.582 27.4153 16.5813 27.4153L16.428 27.419C16.428 27.419 16.4265 27.419 16.4258 27.419H16.4243C16.0239 27.4146 15.9696 27.1578 15.9696 26.9084V26.3728C15.9623 26.3728 15.955 26.3735 15.9476 26.3735C15.4768 26.3735 15.1681 25.6773 15.1549 25.6465C15.1505 25.6362 15.1483 25.6252 15.1476 25.6149H15.3492C15.3492 25.6149 15.3492 25.6142 15.3485 25.6135C15.3485 25.6127 15.2781 25.5225 15.2026 25.3486C15.1512 25.2305 15.1454 25.1285 15.1857 25.0368C15.2216 24.9546 15.2906 24.8937 15.3536 24.8512V25.6142H15.35C15.4497 25.8152 15.7042 26.1835 15.9894 26.1799C16.0398 26.1794 16.0968 26.1791 16.1603 26.1791C16.4463 26.1791 16.6957 25.8145 16.7947 25.6149H16.791V24.8519C16.8541 24.8937 16.9223 24.9546 16.9589 25.0361C17 25.1278 16.9941 25.2298 16.9421 25.3486C16.8658 25.5225 16.7969 25.6127 16.7961 25.6135C16.7961 25.6135 16.7961 25.6149 16.7947 25.6149H16.9963C16.9963 25.6252 16.9934 25.6362 16.989 25.6465C16.9758 25.6773 16.6671 26.3735 16.1962 26.3735C16.1838 26.3735 16.172 26.3735 16.1596 26.3721V26.9084C16.1596 27.16 16.2138 27.226 16.4243 27.229L16.5754 27.2253C16.5754 27.2253 16.5769 27.2253 16.5776 27.2253C16.5798 27.2253 16.5813 27.2253 16.5835 27.2253C16.626 27.0346 16.7961 26.8922 17 26.8922C17.1342 26.8922 17.2545 26.9546 17.3329 27.0522H17.605C17.8529 27.0522 18.0538 26.8511 18.0538 26.6032V26.0639C18.0538 25.816 17.8529 25.6149 17.605 25.6149L17.6065 25.6157Z" fill="#E10098"/>
<path d="M13.612 23.7632C12.2231 25.1528 12.2231 27.4058 13.612 28.7961C15.0017 30.1864 17.2538 30.1864 18.6435 28.7961C20.0325 27.4058 20.0317 25.1535 18.6428 23.7632C17.2531 22.3729 15.0017 22.3729 13.612 23.7632ZM18.2233 28.3772C17.0661 29.5342 15.1887 29.5342 14.0308 28.3772C12.8728 27.218 12.8728 25.3406 14.0308 24.1829C15.188 23.0244 17.0653 23.0244 18.2233 24.1829C19.3812 25.3406 19.3812 27.218 18.2233 28.3772Z" fill="#E10098"/>
<path d="M25.2965 6.49946C25.1425 6.34025 24.9357 6.27643 24.7656 6.25222C24.7553 6.25148 24.7451 6.25075 24.7341 6.25001C24.7099 6.24928 24.6849 6.24781 24.6607 6.24855C24.6123 6.24928 24.5632 6.25295 24.5155 6.26175C24.4679 6.27056 24.4209 6.28376 24.3762 6.30064C24.286 6.33512 24.2024 6.38647 24.1217 6.44297C24.0411 6.49946 23.9619 6.56035 23.8783 6.61611C23.8365 6.64399 23.7939 6.67113 23.7499 6.69535C23.7074 6.71956 23.6648 6.7445 23.6216 6.77018C23.5783 6.79512 23.5343 6.8208 23.4888 6.84281C23.4426 6.86482 23.3935 6.88243 23.3429 6.89343C23.2417 6.91471 23.1354 6.90957 23.0371 6.88096C22.9381 6.85235 22.8479 6.79952 22.7731 6.73129C22.768 6.72689 22.768 6.71882 22.7731 6.71369C22.776 6.71075 22.7804 6.70928 22.7848 6.71002L22.7914 6.71149C22.9022 6.73276 22.9946 6.73863 23.0789 6.72909C23.1625 6.72029 23.2336 6.69828 23.2945 6.66747C23.3099 6.66013 23.3246 6.65279 23.3385 6.64399C23.3422 6.64179 23.3451 6.63959 23.3488 6.63739C23.3524 6.63519 23.3554 6.63298 23.359 6.63078L23.381 6.61611L23.4888 6.54348C23.5086 6.53027 23.5299 6.51707 23.5512 6.50313C23.5732 6.48992 23.5959 6.47525 23.6208 6.46204L23.6494 6.4459C23.659 6.44077 23.6678 6.4349 23.6773 6.42976C23.678 6.42976 23.6788 6.42903 23.6795 6.42829C23.5079 6.32265 23.0547 6.08788 22.5876 6.22874C22.3272 6.30724 22.2011 6.56475 22.141 6.78045C22.0918 6.92205 22.0669 7.10399 22.0918 7.3373C22.0948 7.40186 22.1028 7.46642 22.1116 7.53025C22.1512 7.83031 22.215 8.12525 22.2979 8.41577C22.3683 8.66155 22.4512 8.90366 22.5692 9.13256C22.6374 9.26535 22.7166 9.39154 22.8318 9.49205C22.977 9.61897 23.1449 9.62338 23.2952 9.50232C23.3942 9.42309 23.461 9.31891 23.5226 9.21179C23.568 9.13256 23.6062 9.04892 23.6436 8.96602C23.6612 8.9264 23.6868 8.89485 23.7345 8.88972C23.7932 8.88385 23.8306 8.90512 23.8577 8.96162C23.89 9.02985 23.9193 9.09954 23.9553 9.16557C24.0132 9.27269 24.0755 9.37613 24.1635 9.46344C24.2215 9.52066 24.2867 9.56615 24.3696 9.58376C24.4855 9.60797 24.5823 9.56762 24.6681 9.49499C24.7649 9.41282 24.8353 9.30937 24.8969 9.20079C25.0252 8.97335 25.1117 8.72905 25.1865 8.48107C25.2254 8.35195 25.2599 8.22135 25.2907 8.09076H25.2951C25.4095 7.69239 25.4909 7.32042 25.4997 7.08418C25.5077 6.84354 25.4403 6.64692 25.298 6.49946H25.2965Z" fill="#E10098"/>
<path d="M24.893 23.6656C24.6041 23.6634 24.3665 23.9011 24.3672 24.1902C24.3672 24.4785 24.6019 24.7118 24.8901 24.7125C25.1775 24.7125 25.4122 24.4792 25.4129 24.1909C25.4144 23.9033 25.1805 23.6678 24.893 23.6656ZM24.8886 24.3494C24.7999 24.3486 24.7287 24.276 24.7302 24.1872C24.7309 24.0992 24.805 24.0273 24.893 24.028C24.9803 24.0288 25.0529 24.1036 25.0514 24.1916C25.0499 24.2804 24.9773 24.3508 24.8886 24.3501V24.3494Z" fill="#E10098"/>
<path d="M23.1884 23.6663C22.8973 23.6663 22.6626 23.9011 22.6641 24.1916C22.6648 24.4799 22.8973 24.7125 23.1869 24.7133C23.4751 24.714 23.7113 24.4763 23.7098 24.1858C23.7084 23.9011 23.4729 23.6663 23.1891 23.6663H23.1884ZM23.1847 24.3501C23.0953 24.3501 23.0256 24.2782 23.0263 24.1887C23.0263 24.0999 23.0997 24.0273 23.1877 24.0287C23.2749 24.0295 23.3483 24.1043 23.3475 24.1916C23.3475 24.2797 23.2735 24.3516 23.1855 24.3508L23.1847 24.3501Z" fill="#E10098"/>
<path d="M25.5197 23.1051C25.4801 23.1066 25.4632 23.0934 25.4522 23.0552C25.3723 22.7933 25.2909 22.5328 25.2087 22.2717C25.1611 22.1205 25.0371 22.0281 24.8824 22.0281C24.6675 22.0281 24.4519 22.0281 24.2371 22.0281C24.0794 22.0281 23.9884 22.1205 23.9884 22.279C23.9884 22.4888 23.9884 22.6987 23.9884 22.9092V22.9694C23.973 22.9708 23.9642 22.973 23.9562 22.973C23.951 22.973 23.9459 22.973 23.94 22.973C23.7919 22.973 23.6995 22.973 23.4868 22.9716C23.467 22.9716 23.4399 22.9525 23.4282 22.9342C23.1832 22.5659 22.9412 22.1961 22.697 21.8271C22.6626 21.7742 22.634 21.7031 22.5841 21.6789C22.5313 21.6532 22.4558 21.6693 22.3912 21.6737C22.3656 21.6759 22.3333 21.6906 22.3179 21.7104C22.0612 22.0406 21.806 22.3722 21.5523 22.7038C21.509 22.7595 21.5317 22.8102 21.6029 22.8219C21.6725 22.8336 21.7121 22.8769 21.7099 22.9386C21.7077 22.9958 21.6615 23.0427 21.6043 23.0457C21.5405 23.0493 21.4951 23.0083 21.4841 22.9371C21.4767 22.8901 21.4496 22.8637 21.4115 22.8681C21.3719 22.8718 21.3477 22.9077 21.3521 22.9554C21.3616 23.0625 21.4437 23.155 21.5479 23.1755C21.6579 23.1968 21.7664 23.1447 21.8163 23.0464C21.8669 22.9459 21.8463 22.83 21.7635 22.7537C21.7488 22.7397 21.7327 22.728 21.7143 22.7126C21.9226 22.4419 22.1302 22.1726 22.3428 21.896C22.51 22.2577 22.6728 22.6113 22.8393 22.9723C22.8144 22.9723 22.7982 22.9723 22.7814 22.9723C22.62 22.9723 22.458 22.9723 22.2966 22.9723C22.1287 22.9723 22.0385 23.0625 22.0378 23.2306C22.0378 23.5159 22.0378 23.8021 22.0378 24.0875V24.1425C22.191 24.1425 22.3392 24.1432 22.4866 24.1403C22.4968 24.1403 22.513 24.1131 22.5144 24.0977C22.5555 23.7801 22.8261 23.527 23.1451 23.5093C23.4744 23.4903 23.7706 23.7074 23.8469 24.0229C23.8564 24.0611 23.8623 24.0999 23.8696 24.1388C24.0354 24.1388 23.9415 24.1403 24.1058 24.1403V24.1388H24.2092C24.306 23.739 24.5157 23.5314 24.8457 23.5093C24.9946 23.4991 25.1332 23.5343 25.2579 23.6157C25.4471 23.739 25.5468 23.9187 25.5717 24.1425C25.5908 24.1425 25.604 24.1425 25.6179 24.1425C25.8123 24.1425 25.8504 24.1432 26.0447 24.1418C26.0447 24.1418 26.0447 23.7492 26.0447 23.7412C26.0447 23.6069 26.0462 23.4727 26.044 23.3384C26.0411 23.1953 25.9465 23.1036 25.8049 23.1029C25.7103 23.1029 25.6157 23.1007 25.5211 23.1036L25.5197 23.1051ZM25.1471 22.9246C25.1471 22.9246 25.1471 22.9268 25.1471 22.9276C25.1442 22.9606 25.1171 22.9855 25.0841 22.9855H24.3214C24.2869 22.9855 24.2583 22.9576 24.2583 22.9224V22.3003C24.2583 22.2687 24.2818 22.2423 24.3126 22.2379C24.3148 22.2379 24.317 22.2379 24.3192 22.2364C24.3265 22.235 24.3361 22.2335 24.3471 22.2335C24.4079 22.2335 24.4681 22.2335 24.5289 22.2335C24.625 22.2335 24.724 22.2335 24.8208 22.2335H24.8215C24.8941 22.2335 24.9499 22.2724 24.9711 22.3384C25.0166 22.4793 25.0613 22.6231 25.1039 22.7617C25.1171 22.805 25.1303 22.8476 25.1442 22.8909C25.1486 22.9063 25.1471 22.9187 25.1464 22.9246H25.1471Z" fill="#E10098"/>
<path d="M11.0337 10.4554C12.4226 9.06508 12.4226 6.81275 11.0337 5.42321C9.64398 4.03292 7.39188 4.03292 6.00219 5.42321C4.61324 6.81275 4.61397 9.06582 6.00366 10.4554C7.39261 11.8456 9.64545 11.8456 11.0344 10.4554H11.0337ZM6.42093 5.84286C7.57815 4.68441 9.45551 4.68441 10.6135 5.84286C11.7707 7.0013 11.7714 8.878 10.6135 10.0372C9.45551 11.1942 7.57888 11.1942 6.42093 10.0372C5.26298 8.878 5.26298 7.00057 6.42093 5.84286Z" fill="#E10098"/>
<path d="M8.51144 9.91309C9.70019 9.30709 10.028 8.87643 10.028 8.49273C10.028 8.20367 10.0324 6.65712 10.0324 6.65712C9.07611 6.65712 8.51144 6.10687 8.51144 6.10687C8.51144 6.10687 7.94676 6.65712 6.99048 6.65712C6.99048 6.65712 6.98828 8.25796 6.98828 8.49273C6.98828 8.87643 7.26182 9.27628 8.51144 9.91309ZM7.23835 7.87132H7.66882V7.40692H7.99223V7.87132H8.4095V7.79209C8.4095 7.58373 8.4733 7.41425 8.60164 7.28293C8.72997 7.1516 8.89498 7.08631 9.09665 7.08631C9.29831 7.08631 9.46918 7.13766 9.58138 7.23964C9.69359 7.34162 9.75079 7.47588 9.75299 7.64242L9.75079 7.64976H9.42078C9.41418 7.55805 9.38558 7.48615 9.33352 7.43259C9.28145 7.37904 9.20591 7.35262 9.10618 7.35262C9.00058 7.35262 8.91551 7.39371 8.85171 7.47515C8.78717 7.55658 8.75491 7.66149 8.75491 7.78988V8.15158C8.75491 8.28217 8.78864 8.38855 8.85537 8.46999C8.92211 8.55142 9.01231 8.59251 9.12525 8.59251C9.20518 8.59251 9.26971 8.58444 9.31885 8.56756C9.36798 8.55069 9.40465 8.53015 9.42958 8.50594V8.18606H9.12451V7.94982H9.77425V8.59764C9.72292 8.66587 9.64372 8.72603 9.53519 8.77959C9.42665 8.83241 9.29025 8.85882 9.12525 8.85882C8.91478 8.85882 8.74244 8.79353 8.6097 8.66294C8.48064 8.53602 8.41464 8.37241 8.41024 8.17212H7.99223V8.66H7.66882V8.17212H7.23835V7.87279V7.87132Z" fill="#E10098"/>
<path d="M8.5164 10.236C9.90682 9.52724 10.2896 9.02395 10.2896 8.57496C10.2896 8.23674 10.2948 6.42754 10.2948 6.42754C9.17641 6.42754 8.51567 5.78412 8.51567 5.78412C8.51567 5.78412 7.85492 6.42754 6.73657 6.42754C6.73657 6.42754 6.73438 8.29983 6.73438 8.57496C6.73438 9.02395 7.05411 9.4913 8.51567 10.236H8.5164ZM6.86198 6.58601C6.86198 6.55813 6.88618 6.53539 6.91551 6.53539C7.88426 6.53539 8.4702 5.97927 8.47827 5.9712C8.48853 5.96166 8.50247 5.9558 8.5164 5.9558C8.53033 5.9558 8.545 5.96166 8.55453 5.9712C8.5604 5.97707 9.14414 6.53539 10.1173 6.53539C10.1312 6.53539 10.1452 6.54052 10.1554 6.55006C10.1657 6.5596 10.1708 6.5728 10.1708 6.58601C10.1708 6.60215 10.1657 8.21766 10.1657 8.51846C10.1657 8.75397 10.0535 8.9814 9.82249 9.21324C9.56068 9.47589 9.14194 9.75248 8.54133 10.0584C8.53327 10.0628 8.52447 10.0643 8.51567 10.0643C8.50687 10.0643 8.49807 10.0621 8.49 10.0584C7.86372 9.73927 7.43619 9.45901 7.18171 9.20077C6.96171 8.97773 6.85904 8.76057 6.85904 8.51846C6.85904 8.27636 6.86124 6.60288 6.86124 6.58601H6.86198Z" fill="#E10098"/>
<path d="M16.1336 8.2786C18.099 8.2764 19.6896 6.68069 19.686 4.71449C19.6838 2.74975 18.0887 1.15771 16.1234 1.16065C14.1595 1.16285 12.5674 2.75782 12.5703 4.72403C12.5732 6.69023 14.1683 8.28154 16.1329 8.2786H16.1336ZM16.1248 1.75418C17.7624 1.75198 19.0905 3.0777 19.0934 4.71669C19.0956 6.35422 17.7697 7.68361 16.1322 7.68581C14.4953 7.68874 13.1673 6.36229 13.1643 4.72329C13.1621 3.0843 14.488 1.75565 16.1248 1.75344V1.75418Z" fill="#E10098"/>
<path d="M14.5235 5.83184C14.7083 5.47821 14.7054 5.41365 14.7054 5.41365C14.7054 5.41365 14.8044 5.05929 14.8616 5.42979C14.918 5.79956 14.9232 6.45911 15.061 6.58824H15.8259L15.834 6.24269C15.834 6.24269 15.6778 6.45765 15.5685 6.24269C15.4974 6.10256 15.5032 5.76141 15.5604 5.61541C15.6 5.51563 15.746 5.35863 15.8985 5.34982C16.018 5.34395 16.2138 5.33368 16.3561 5.35349V5.35716C16.3649 5.35936 16.3752 5.36303 16.3862 5.36743C16.4595 5.39751 16.5908 5.47161 16.6626 5.64329C16.6971 5.72692 16.7176 5.8333 16.7103 5.9683C16.7088 5.99471 16.7066 6.02185 16.703 6.0512C16.6986 6.09082 16.6912 6.13264 16.681 6.17666C16.681 6.17666 16.6135 6.48626 16.395 6.24709L16.3964 6.58824H17.2002V6.04093L17.5346 6.05707L17.3447 5.34102C17.3447 5.34102 17.3124 5.09158 17.4415 5.36523C17.5698 5.63888 17.6028 5.74453 17.6908 5.84798C17.7517 5.91988 18.1022 6.10916 17.9805 5.6066C17.8639 5.12606 17.8067 4.81499 17.4334 4.53693C17.2156 4.37479 16.8687 4.30069 16.3642 4.43568C16.4984 4.51419 16.5886 4.65945 16.5886 4.82599C16.5886 4.97859 16.513 5.11285 16.3972 5.19502C16.3664 5.21703 16.3319 5.23537 16.296 5.24858C16.2461 5.26692 16.1926 5.27792 16.1361 5.27792C15.886 5.27792 15.6844 5.07543 15.6844 4.82526C15.6844 4.66092 15.7724 4.51785 15.9029 4.43862C15.7247 4.41001 15.1674 4.33371 14.8924 4.44816C14.5169 4.60443 14.3013 5.25005 14.1605 5.65429C14.1275 5.74967 14.1847 6.18546 14.5228 5.8311L14.5235 5.83184Z" fill="#E10098"/>
<path d="M15.3773 4.23389C15.7476 4.23389 16.0469 3.93382 16.0469 3.56406C16.0469 3.19429 15.7469 2.89349 15.3773 2.89349C15.0077 2.89349 14.707 3.19356 14.707 3.56406C14.707 3.93456 15.007 4.23389 15.3773 4.23389Z" fill="#E10098"/>
<path d="M16.8695 4.23389C17.2398 4.23389 17.539 3.93382 17.539 3.56406C17.539 3.19429 17.2391 2.89349 16.8695 2.89349C16.4999 2.89349 16.1992 3.19356 16.1992 3.56406C16.1992 3.93456 16.4999 4.23389 16.8695 4.23389Z" fill="#E10098"/>
<path d="M23.7843 19.5681C21.8196 19.571 20.229 21.1667 20.2305 23.1314C20.2341 25.0976 21.8284 26.6875 23.7938 26.686C25.7577 26.6838 27.3483 25.0881 27.3454 23.1226C27.3439 21.1564 25.7496 19.5644 23.7843 19.5673V19.5681ZM23.7931 26.0932C22.1562 26.0947 20.8259 24.7697 20.8252 23.1314C20.8223 21.4924 22.1482 20.1638 23.7843 20.1609C25.4225 20.1601 26.7506 21.4858 26.7543 23.1234C26.7565 24.7616 25.4306 26.091 23.7931 26.0932Z" fill="#E10098"/>
<path d="M26.9166 14.4861L25.5107 15.726C25.5107 15.726 25.5107 15.7304 25.5093 15.734C25.5093 15.7377 25.5078 15.7399 25.5078 15.7421V16.9974C25.5078 17.0429 25.5232 17.0818 25.554 17.1148C25.5848 17.1478 25.6215 17.1647 25.664 17.1647H26.28C26.2793 17.1529 26.2786 17.1405 26.2786 17.1287V16.4061C26.2786 16.1075 26.5206 15.8661 26.8183 15.8661H26.984C27.2825 15.8661 27.5238 16.1082 27.5238 16.4061V17.1287C27.5238 17.1412 27.5238 17.1529 27.5223 17.1647H28.1669C28.2095 17.1647 28.2461 17.1478 28.2769 17.1148C28.3077 17.0818 28.3239 17.0421 28.3239 16.9974V15.7421C28.3239 15.7348 28.3231 15.7296 28.3217 15.7267L26.9158 14.4868L26.9166 14.4861Z" fill="#E10098"/>
<path d="M28.324 15.0114V13.9446C28.324 13.9204 28.3167 13.8999 28.302 13.8845C28.2874 13.869 28.2683 13.861 28.2456 13.861H27.7762C27.7535 13.861 27.7344 13.869 27.7198 13.8845C27.7051 13.8999 27.6978 13.9204 27.6978 13.9446V14.4545L27.1016 13.9211C27.0495 13.8756 26.9872 13.8529 26.916 13.8529C26.8449 13.8529 26.7826 13.8756 26.7305 13.9211L24.9727 15.4875C24.9565 15.5014 24.9477 15.5198 24.9455 15.544C24.9441 15.5675 24.9499 15.588 24.9624 15.6056L25.1142 15.7993C25.1274 15.8147 25.1443 15.825 25.1655 15.8279C25.1853 15.8294 25.2051 15.8235 25.2242 15.8096L26.916 14.3004L28.6079 15.8096C28.6211 15.822 28.6379 15.8279 28.6592 15.8279H28.6665C28.6878 15.8242 28.7047 15.8147 28.7179 15.7993L28.8697 15.6056C28.8829 15.588 28.8887 15.5675 28.8865 15.544C28.8851 15.5205 28.8755 15.5022 28.8594 15.4875L28.324 15.0114Z" fill="#E10098"/>
<path d="M29.4065 13.0011C28.0153 11.6131 25.761 11.6167 24.3743 13.0092C22.9868 14.401 22.9904 16.654 24.3816 18.0428C25.7728 19.4302 28.0249 19.4265 29.4116 18.0355C30.8006 16.6438 30.7962 14.39 29.4065 13.0011ZM28.9921 17.6159C27.8364 18.7758 25.959 18.7787 24.7996 17.6217C23.6409 16.4647 23.638 14.5866 24.7945 13.4267C25.951 12.2675 27.8276 12.2653 28.9877 13.4208C30.1464 14.5785 30.1486 16.4559 28.9921 17.6159Z" fill="#E10098"/>
<path d="M26.3044 10.4062C27.6919 9.01808 27.6919 6.76722 26.3044 5.37914C24.9162 3.99032 22.667 3.99032 21.2788 5.37914C19.8913 6.76722 19.8913 9.01735 21.2795 10.4062C22.6678 11.795 24.9169 11.795 26.3051 10.4062H26.3044ZM21.6975 5.79805C22.8533 4.64108 24.7285 4.64108 25.8857 5.79805C27.0422 6.95503 27.0429 8.83027 25.8857 9.98798C24.7292 11.1442 22.8548 11.1442 21.6975 9.98798C20.5411 8.83027 20.5411 6.95503 21.6975 5.79805Z" fill="#E10098"/>
<path d="M15.0222 14.5117C15.0222 13.4839 14.3908 12.8118 13.3231 12.8118H11.3086V18.1873H12.3118V16.1955H13.3231C14.3901 16.1955 15.0222 15.563 15.0222 14.5117ZM12.3125 15.3261V13.6819H13.1662C13.648 13.6819 13.9714 13.9505 13.9714 14.5117C13.9714 15.073 13.6472 15.3253 13.1662 15.3253H12.3125V15.3261Z" fill="#E10098"/>
<path d="M16.7415 12.8126H15.7383V18.1881H16.7415V12.8126Z" fill="#E10098"/>
<path d="M20.9239 13.6819V12.8126H17.6055V18.1873H18.6087V16.1162H20.6232V15.2468H18.6087V13.6819H20.9239Z" fill="#E10098"/>
<path d="M10.7542 24.0214L10.1888 21.7008C10.1646 21.6017 10.0641 21.5409 9.96513 21.5651L9.57792 21.6597C9.56546 21.6626 9.55446 21.6707 9.54786 21.6817C9.54126 21.6927 9.53906 21.7059 9.54272 21.7184V21.7199C9.54786 21.7375 9.54932 21.7558 9.54786 21.7742C9.54199 21.849 9.48919 21.9106 9.41659 21.929C9.37185 21.94 9.32565 21.9326 9.28605 21.9084C9.24645 21.8842 9.21859 21.8468 9.20832 21.802V21.7998C9.20465 21.7874 9.19732 21.7764 9.18632 21.7698C9.17532 21.7632 9.16212 21.7609 9.14965 21.7639L8.76245 21.8585C8.68471 21.8776 8.62824 21.9444 8.62164 22.0243C8.62018 22.0434 8.62164 22.0632 8.62604 22.0823L8.80278 22.8064C9.02132 22.8592 9.21932 22.9619 9.38579 23.1035L9.27065 22.6318C9.26845 22.6223 9.26772 22.612 9.26845 22.6025C9.27139 22.5636 9.29779 22.5313 9.33445 22.5196C9.33739 22.5188 9.34032 22.5174 9.34399 22.5174L9.77813 22.4117C9.80233 22.4058 9.82799 22.4095 9.84926 22.4227C9.87053 22.4359 9.88593 22.4565 9.8918 22.4807L10.1338 23.4726C10.136 23.4821 10.1367 23.4924 10.136 23.5019C10.1331 23.5423 10.1045 23.5768 10.0649 23.5863L9.78326 23.6553C9.80379 23.7066 9.82139 23.7594 9.83606 23.8137L10.0385 23.7631C10.0487 23.7602 10.0597 23.7668 10.0627 23.7778L10.0847 23.8658C10.0876 23.8761 10.081 23.8871 10.07 23.89L9.86393 23.9421C9.87713 24.0199 9.88446 24.0991 9.88446 24.1806C9.88446 24.196 9.88446 24.2114 9.883 24.2275C9.905 24.2048 9.93286 24.1879 9.96586 24.1798C10.0106 24.1688 10.0568 24.1762 10.0964 24.2004C10.136 24.2246 10.1639 24.262 10.1741 24.3067C10.1771 24.3192 10.1851 24.3302 10.1961 24.3368C10.2071 24.3434 10.2203 24.3456 10.2328 24.3427L10.62 24.2481C10.6977 24.229 10.7542 24.1622 10.7608 24.0822C10.7623 24.0632 10.7608 24.0434 10.7564 24.0243L10.7542 24.0214ZM9.17605 22.4036L8.89005 22.4755C8.87978 22.4785 8.86878 22.4719 8.86585 22.4609L8.84385 22.3728C8.84091 22.3626 8.84751 22.3515 8.85851 22.3486L9.14452 22.2767C9.15478 22.2738 9.16578 22.2804 9.16872 22.2914L9.19072 22.3794C9.19365 22.3897 9.18705 22.4007 9.17605 22.4036ZM9.65786 22.2745L9.37185 22.3464C9.36159 22.3493 9.35059 22.3427 9.34765 22.3317L9.32565 22.2437C9.32272 22.2334 9.32932 22.2224 9.34032 22.2195L9.62633 22.1476C9.63659 22.1447 9.64759 22.1513 9.65053 22.1623L9.67253 22.2503C9.67546 22.2606 9.66886 22.2716 9.65786 22.2745ZM10.1294 22.1513L9.84339 22.2232C9.83313 22.2261 9.82213 22.2195 9.81919 22.2085L9.79719 22.1204C9.79426 22.1102 9.80086 22.0992 9.81186 22.0962L10.0979 22.0243C10.1081 22.0214 10.1191 22.028 10.1221 22.039L10.1441 22.127C10.147 22.1373 10.1404 22.1483 10.1294 22.1513ZM10.5393 23.7638L10.2533 23.8357C10.2431 23.8387 10.2321 23.8321 10.2291 23.8211L10.2071 23.733C10.2042 23.7228 10.2108 23.7117 10.2218 23.7088L10.5078 23.6369C10.5181 23.634 10.5291 23.6406 10.532 23.6516L10.554 23.7396C10.5569 23.7499 10.5503 23.7609 10.5393 23.7638Z" fill="#E10098"/>
<path d="M8.06604 22.8263L8.37184 22.2379C8.40778 22.1697 8.41731 22.0582 8.39384 21.9848L8.19584 21.3582C8.13057 21.1535 7.91277 21.0398 7.70743 21.1044L7.08116 21.3025C7.00782 21.326 6.92202 21.3979 6.88682 21.4661L6.12048 22.94C6.07794 23.0222 6.10948 23.1227 6.19161 23.166L7.15523 23.6671C7.31216 23.265 7.64877 22.9517 8.06531 22.827L8.06604 22.8263ZM7.11489 21.8652C7.21976 21.8322 7.34076 21.8945 7.37376 22.0002C7.40823 22.1088 7.3481 22.2247 7.23883 22.2592C7.13029 22.2937 7.01443 22.2335 6.97996 22.1242C6.94549 22.0156 7.00562 21.8997 7.11489 21.8652ZM6.81496 22.6106C6.80029 22.615 6.78489 22.6135 6.77095 22.6069C6.74309 22.5923 6.73209 22.5578 6.74675 22.5299C6.75409 22.5167 6.76582 22.5064 6.78049 22.502L7.75364 22.1946C7.7837 22.1851 7.81597 22.2019 7.8255 22.232C7.83504 22.2621 7.81817 22.2944 7.7881 22.3039L6.81496 22.6113V22.6106ZM7.19483 22.8043C7.16036 22.6957 7.22049 22.5798 7.32976 22.5453C7.4383 22.5108 7.55417 22.571 7.58863 22.6803C7.6231 22.7889 7.56297 22.9048 7.4537 22.9393C7.34516 22.9738 7.22929 22.9136 7.19483 22.8043ZM8.46938 22.9195C7.77564 22.9195 7.21169 23.4844 7.21169 24.1777C7.21169 24.871 7.77637 25.4359 8.46938 25.4359C9.16239 25.4359 9.72706 24.871 9.72706 24.1777C9.72706 23.4844 9.16239 22.9195 8.46938 22.9195ZM8.92845 23.5937C9.01865 23.5937 9.09125 23.6671 9.09125 23.7566C9.09125 23.8461 9.01865 23.9194 8.92845 23.9194C8.83825 23.9194 8.76565 23.8468 8.76565 23.7566C8.76565 23.6663 8.83825 23.5937 8.92845 23.5937ZM8.00957 23.5937C8.09977 23.5937 8.17237 23.6671 8.17237 23.7566C8.17237 23.8461 8.09904 23.9194 8.00957 23.9194C7.9201 23.9194 7.84677 23.8468 7.84677 23.7566C7.84677 23.6663 7.91937 23.5937 8.00957 23.5937ZM8.46938 25.0243C8.05577 25.0243 7.72064 24.6891 7.72064 24.2753H9.21812C9.21812 24.6891 8.88299 25.0243 8.46938 25.0243Z" fill="#E10098"/>
<path d="M11.0286 25.7323C12.4256 24.3347 12.4249 22.0691 11.0286 20.6715C9.63086 19.2732 7.36703 19.2732 5.96927 20.6715C4.57225 22.0684 4.57299 24.3347 5.97001 25.7323C7.36703 27.1306 9.63233 27.1306 11.0286 25.7323ZM6.39095 21.0934C7.55476 19.9283 9.44239 19.9283 10.6069 21.0934C11.7708 22.2577 11.7715 24.1454 10.6069 25.3112C9.44312 26.4747 7.5555 26.4747 6.39095 25.3112C5.2264 24.1454 5.2264 22.2577 6.39095 21.0934Z" fill="#E10098"/>
<path d="M7.42833 22.8682C7.36233 22.8872 7.2934 22.8513 7.27139 22.7867C7.25086 22.7207 7.2868 22.6503 7.3528 22.6297C7.4188 22.6092 7.4892 22.6451 7.50973 22.7112C7.53027 22.7772 7.4936 22.8476 7.42833 22.8682Z" fill="#E10098"/>
<path d="M7.13789 21.9474C7.20389 21.9268 7.27429 21.9628 7.29482 22.0288C7.31536 22.0948 7.27869 22.1653 7.21342 22.1858C7.14742 22.2049 7.07849 22.1689 7.05649 22.1044C7.03595 22.0383 7.07262 21.9679 7.13789 21.9474Z" fill="#E10098"/>
<path d="M9.79595 22.5057L9.36328 22.6114L9.51362 23.2291C9.60455 23.3289 9.68155 23.4419 9.74095 23.5644L10.0365 23.4925L9.79595 22.5057Z" fill="#E10098"/>
<path d="M7.29516 22.0295C7.27463 21.9635 7.20423 21.9268 7.13823 21.9481C7.07223 21.9686 7.03556 22.039 7.05683 22.1051C7.07883 22.1696 7.14849 22.2063 7.21376 22.1865C7.27976 22.166 7.31643 22.0955 7.29516 22.0295ZM7.50857 22.7111C7.48803 22.645 7.41763 22.6084 7.35163 22.6296C7.28563 22.6502 7.24896 22.7206 7.27023 22.7866C7.29223 22.8512 7.3619 22.8879 7.42717 22.8681C7.49317 22.8475 7.52983 22.7771 7.50857 22.7111Z" fill="#E10098"/>
</svg>
