<svg width="26" height="26" viewBox="0 0 26 26" fill="none" xmlns="http://www.w3.org/2000/svg">
<g clip-path="url(#clip0_5644_38407)">
<path d="M16.44 20.0868C15.1736 20.0868 13.4346 19.2184 12.9293 19.2184C12.4269 19.2184 10.6849 20.0868 9.41848 20.0868C8.19967 20.0868 7.16815 19.2644 6.81439 18.129C6.81439 18.1382 6.82034 18.1474 6.82331 18.1566C6.77872 18.0185 6.74305 17.8774 6.71927 17.7332C6.71927 17.7301 6.71927 17.724 6.71927 17.7209C6.70738 17.6565 6.70143 17.5889 6.69548 17.5245C6.69548 17.5153 6.69548 17.503 6.69251 17.4938C6.68657 17.4171 6.68359 17.3404 6.68359 17.2637C6.68359 15.9749 7.52784 14.8947 8.67233 14.5602C8.80313 14.4743 8.9488 14.3731 9.09446 14.2564C9.31444 14.0785 9.54334 13.8606 9.75143 13.5967C9.95952 13.3328 10.1438 13.0259 10.2776 12.673C10.3162 12.5718 10.3549 12.4797 10.3965 12.3877C10.4797 12.2066 10.5719 12.0471 10.67 11.9059C10.7681 11.7617 10.8721 11.6389 10.9821 11.5285C11.0921 11.418 11.2051 11.3259 11.321 11.2431C11.437 11.1633 11.5559 11.0958 11.6777 11.0406C11.8591 10.9577 12.0434 10.8994 12.2247 10.8595C12.4685 10.8073 12.7063 10.7889 12.9263 10.7889H12.9322C13.2087 10.7889 13.5119 10.8196 13.8181 10.9055C14.4869 11.0989 15.1618 11.5776 15.5779 12.67C15.9376 13.6151 16.657 14.2227 17.1832 14.5602C18.3277 14.8978 19.1719 15.9749 19.1719 17.2637C19.1719 18.8225 17.9472 20.0868 16.4341 20.0868H16.44Z" fill="#E10098"/>
<path d="M5.38741 12.1882C4.83448 11.2308 5.03366 10.0617 5.82737 9.57071C6.62108 9.0828 7.71504 9.46024 8.26499 10.4176C8.47308 10.7767 8.57415 11.1664 8.57712 11.5377C8.58307 12.0348 8.4166 12.4982 8.09257 12.8204C8.01231 12.9001 7.92313 12.9738 7.82205 13.0352C7.02834 13.5231 5.93736 13.1456 5.38443 12.1882H5.38741Z" fill="#E10098"/>
<path d="M9.84608 5.97428C10.7528 5.78096 11.6624 6.50822 11.8794 7.60064C12.0013 8.21436 11.8794 8.80967 11.5851 9.25155C11.5197 9.34975 11.4454 9.43874 11.3651 9.51852C11.3235 9.55841 11.2819 9.59523 11.2373 9.63206C11.0619 9.77321 10.8568 9.87448 10.6309 9.92357C10.4614 9.9604 10.292 9.96347 10.1255 9.93892C9.40612 9.83152 8.77294 9.18404 8.59755 8.30028C8.38054 7.21093 8.93941 6.17068 9.84608 5.97735V5.97428Z" fill="#E10098"/>
<path d="M18.0949 13.0352C17.9969 12.9738 17.9047 12.9032 17.8244 12.8204C17.5034 12.4982 17.3369 12.0317 17.3399 11.5377C17.3429 11.1664 17.4469 10.7767 17.652 10.4176C18.2049 9.46024 19.2959 9.0828 20.0896 9.57071C20.8833 10.0586 21.0825 11.2308 20.5296 12.1882C19.9767 13.1456 18.8857 13.5231 18.092 13.0352H18.0949Z" fill="#E10098"/>
<path d="M17.3244 8.29722C17.149 9.18404 16.5129 9.82845 15.7964 9.93585C15.63 9.9604 15.4605 9.95733 15.2911 9.92051C15.0651 9.87141 14.86 9.77014 14.6846 9.62899C14.6401 9.59217 14.5984 9.55534 14.5568 9.51545C14.4766 9.43567 14.4022 9.34361 14.3368 9.24848C14.0455 8.80967 13.9207 8.2113 14.0425 7.59758C14.2595 6.50822 15.1722 5.78096 16.0759 5.97122C16.9825 6.16454 17.5414 7.2048 17.3244 8.29415V8.29722Z" fill="#E10098"/>
<path d="M12.9617 25.5182C6.16018 25.5182 0.625 19.8045 0.625 12.7835C0.625 5.76256 6.16018 0.0488281 12.9617 0.0488281C19.7633 0.0488281 25.2985 5.76256 25.2985 12.7835C25.2985 19.8045 19.7633 25.5182 12.9617 25.5182ZM12.9617 1.41129C6.88552 1.41129 1.94488 6.5113 1.94488 12.7835C1.94488 19.0557 6.88849 24.1558 12.9617 24.1558C19.035 24.1558 23.9786 19.0527 23.9786 12.7835C23.9786 6.51437 19.0379 1.41129 12.9617 1.41129Z" fill="#E10098"/>
</g>
<defs>
<clipPath id="clip0_5644_38407">
<rect width="24.6735" height="25.4694" fill="white" transform="translate(0.625 0.0488586)"/>
</clipPath>
</defs>
</svg>
