<svg width="28" height="28" viewBox="0 0 28 28" fill="none" xmlns="http://www.w3.org/2000/svg">
<g clip-path="url(#clip0_5644_35680)">
<path d="M14.098 27.3483C6.7649 27.3483 0.796875 21.3803 0.796875 14.044C0.796875 6.70761 6.7649 0.742798 14.098 0.742798C21.4312 0.742798 27.3992 6.71082 27.3992 14.044C27.3992 21.3771 21.4312 27.3451 14.098 27.3451V27.3483ZM14.098 2.16574C7.54864 2.16574 2.21982 7.49456 2.21982 14.044C2.21982 20.5934 7.54864 25.9254 14.1013 25.9254C20.6539 25.9254 25.9827 20.5966 25.9827 14.044C25.9827 7.49135 20.6507 2.16574 14.098 2.16574Z" fill="#E10098"/>
<path d="M19.6249 8.05666H8.57856C6.80229 8.05666 5.36328 9.49566 5.36328 11.2719V16.8192C5.36328 18.5954 6.80229 20.0345 8.57856 20.0345H19.6216C21.3979 20.0345 22.8369 18.5954 22.8369 16.8192V11.2719C22.8369 9.49566 21.3979 8.05666 19.6216 8.05666H19.6249ZM19.6024 13.2698C18.8507 15.4219 15.719 18.0719 14.1001 18.891C12.4812 18.0719 9.34946 15.4219 8.59783 13.2698C7.79803 11.0342 9.31412 9.22585 11.3056 9.19694C11.5497 9.19373 11.8035 9.21621 12.0572 9.27082C13.4063 9.5599 14.1001 11.0021 14.1001 11.0021C14.1001 11.0021 14.7939 9.5599 16.143 9.27082C16.3999 9.21621 16.6505 9.19373 16.8946 9.19694C18.8861 9.22264 20.4022 11.0342 19.6024 13.2698Z" fill="#E10098"/>
</g>
<defs>
<clipPath id="clip0_5644_35680">
<rect width="26.6055" height="26.6055" fill="white" transform="translate(0.796875 0.742828)"/>
</clipPath>
</defs>
</svg>
