<svg xmlns="http://www.w3.org/2000/svg" width="282" height="248" viewBox="0 0 282 248" version="1.1"><path d="M 0 124.003 L 0 248.007 141.250 247.753 L 282.500 247.500 282.754 123.750 L 283.008 -0 141.504 -0 L 0 0 0 124.003 M 0.485 124.500 C 0.485 192.700, 0.604 220.453, 0.750 186.172 C 0.896 151.892, 0.896 96.092, 0.750 62.172 C 0.604 28.253, 0.484 56.300, 0.485 124.500 M 128 13.007 C 102.928 15.589, 81.521 25.620, 63.257 43.342 C 44.829 61.225, 33.796 84.100, 30.978 110.271 C 27.016 147.074, 44.937 186.728, 75.334 208.419 C 83.884 214.520, 100.583 222.376, 110.500 224.962 C 148.086 234.766, 186.876 224.539, 214.359 197.581 C 237.292 175.086, 249.558 141.292, 246.062 110.229 C 243.088 83.794, 232.192 61.245, 213.743 43.342 C 201.531 31.492, 190.132 24.346, 174.500 18.739 C 160.638 13.768, 142.417 11.521, 128 13.007 M 74.200 101.200 C 71.444 103.956, 73.873 107.754, 77.500 106.362 C 79.961 105.417, 78.683 100, 76 100 C 75.670 100, 74.860 100.540, 74.200 101.200 M 195.739 101.126 C 193.384 102.444, 193.537 105.718, 195.991 106.497 C 198.512 107.297, 200 106.394, 200 104.063 C 200 101.423, 197.853 99.943, 195.739 101.126 M 116.182 104.500 C 115.107 106.858, 115.210 107, 117.986 107 C 119.873 107, 121.301 106.306, 121.965 105.066 C 123.463 102.266, 123.307 102, 120.161 102 C 118.102 102, 117.008 102.688, 116.182 104.500 M 184 116.500 L 184 131 187 131 L 190 131 190 116.500 L 190 102 187 102 L 184 102 184 116.500 M 59.619 110.034 C 55.931 111.139, 52 114.822, 52 117.174 C 52 119.725, 56.425 119.575, 59.065 116.935 C 60.570 115.430, 61.875 115.033, 63.876 115.473 C 65.890 115.915, 67.111 115.535, 68.457 114.048 C 70.260 112.056, 70.228 111.993, 66.678 110.510 C 64.690 109.679, 62.937 109.039, 62.782 109.086 C 62.627 109.133, 61.204 109.560, 59.619 110.034 M 92.843 110.406 C 91.112 111.304, 89.844 111.444, 89.208 110.808 C 88.670 110.270, 87.166 109.981, 85.865 110.165 C 83.576 110.489, 83.491 110.828, 83.215 120.750 L 82.930 131 86.465 131 L 90 131 90 123.468 C 90 116.575, 90.191 115.863, 92.250 115.086 C 96.692 113.409, 98 115.331, 98 123.535 L 98 131 101 131 L 104 131 104 122.674 C 104 115.317, 103.738 114.109, 101.750 112.289 C 98.565 109.374, 95.910 108.813, 92.843 110.406 M 114.212 110.153 C 105.795 112.518, 104.515 125.295, 112.225 129.996 C 116.158 132.394, 118.855 132.505, 123.725 130.471 L 127.385 128.941 125.360 126.916 C 123.615 125.171, 122.971 125.056, 120.708 126.087 C 118.495 127.096, 117.643 126.986, 115.291 125.392 L 112.500 123.500 119.999 123.201 C 124.123 123.037, 127.827 122.573, 128.229 122.171 C 129.440 120.960, 127.160 114.494, 124.752 112.307 C 121.881 109.700, 118.375 108.984, 114.212 110.153 M 141.250 110.491 C 139.463 111.268, 138 111.475, 138 110.952 C 138 110.428, 136.650 110, 135 110 L 132 110 132 124.566 L 132 139.133 134.750 138.816 C 137.270 138.526, 137.526 138.101, 137.806 133.732 C 138.105 129.060, 138.154 128.995, 140.278 130.482 C 143.581 132.795, 147.592 132.336, 151.046 129.250 C 157.110 123.831, 155.685 113.438, 148.466 110.421 C 144.467 108.751, 145.272 108.743, 141.250 110.491 M 166.500 109.733 C 156.614 112.208, 154.568 124.718, 163.190 129.974 C 167.166 132.399, 170.099 132.522, 174.470 130.447 C 183.630 126.100, 182.553 113.806, 172.685 110.067 C 169.722 108.944, 169.663 108.941, 166.500 109.733 M 209.500 109.744 C 206.297 110.484, 204 113.097, 204 116 C 204 119.263, 206.345 121.533, 210.932 122.711 C 212.820 123.195, 214.544 124.133, 214.765 124.795 C 215.392 126.675, 212.018 127.445, 208.679 126.185 C 206.473 125.352, 205.294 125.341, 204.327 126.144 C 202.216 127.895, 202.752 128.998, 206.468 130.551 C 211.295 132.568, 215.273 132.360, 218.365 129.927 C 222.237 126.882, 221.970 122.562, 217.750 119.989 C 215.963 118.899, 213.739 118.006, 212.809 118.004 C 210.714 117.999, 209.455 116.145, 210.700 114.900 C 211.268 114.332, 212.900 114.418, 214.921 115.122 C 218.113 116.235, 219.929 115.397, 219.985 112.785 C 220.022 111.027, 212.894 108.960, 209.500 109.744 M 73 120.500 L 73 131 76 131 L 79 131 79 120.500 L 79 110 76 110 L 73 110 73 120.500 M 194 120.500 L 194 131 197 131 L 200 131 200 120.500 L 200 110 197 110 L 194 110 194 120.500 M 140.219 115.559 C 135.973 118.533, 138.275 127, 143.329 127 C 145.746 127, 149 123.380, 149 120.691 C 149 115.806, 144.022 112.896, 140.219 115.559 M 167.242 115.089 C 166 115.558, 164.459 117.093, 163.818 118.500 C 162.835 120.658, 162.970 121.483, 164.682 123.779 C 167.194 127.146, 169.375 127.640, 172.549 125.560 C 174.993 123.959, 175.848 119.816, 174.235 117.400 C 172.837 115.306, 169.546 114.219, 167.242 115.089 M 114 116.500 C 112.920 117.801, 113.451 118, 118 118 C 122.549 118, 123.080 117.801, 122 116.500 C 121.315 115.675, 119.515 115, 118 115 C 116.485 115, 114.685 115.675, 114 116.500 M 52.392 123.422 C 50.836 127.477, 58.403 132.710, 64.240 131.615 C 66.197 131.248, 68.300 130.344, 68.912 129.606 C 70.538 127.647, 67.588 125.552, 63.581 125.821 C 61.403 125.968, 59.748 125.379, 58.518 124.020 C 56.398 121.677, 53.181 121.363, 52.392 123.422" stroke="none" fill="#fafafa" fill-rule="evenodd"/><path d="M 128 13.007 C 102.928 15.589, 81.521 25.620, 63.257 43.342 C 44.829 61.225, 33.796 84.100, 30.978 110.271 C 27.016 147.074, 44.937 186.728, 75.334 208.419 C 83.884 214.520, 100.583 222.376, 110.500 224.962 C 148.086 234.766, 186.876 224.539, 214.359 197.581 C 237.292 175.086, 249.558 141.292, 246.062 110.229 C 243.088 83.794, 232.192 61.245, 213.743 43.342 C 201.531 31.492, 190.132 24.346, 174.500 18.739 C 160.638 13.768, 142.417 11.521, 128 13.007 M 74.200 101.200 C 71.444 103.956, 73.873 107.754, 77.500 106.362 C 79.961 105.417, 78.683 100, 76 100 C 75.670 100, 74.860 100.540, 74.200 101.200 M 195.739 101.126 C 193.384 102.444, 193.537 105.718, 195.991 106.497 C 198.512 107.297, 200 106.394, 200 104.063 C 200 101.423, 197.853 99.943, 195.739 101.126 M 116.182 104.500 C 115.107 106.858, 115.210 107, 117.986 107 C 119.873 107, 121.301 106.306, 121.965 105.066 C 123.463 102.266, 123.307 102, 120.161 102 C 118.102 102, 117.008 102.688, 116.182 104.500 M 184 116.500 L 184 131 187 131 L 190 131 190 116.500 L 190 102 187 102 L 184 102 184 116.500 M 59.619 110.034 C 55.931 111.139, 52 114.822, 52 117.174 C 52 119.725, 56.425 119.575, 59.065 116.935 C 60.570 115.430, 61.875 115.033, 63.876 115.473 C 65.890 115.915, 67.111 115.535, 68.457 114.048 C 70.260 112.056, 70.228 111.993, 66.678 110.510 C 64.690 109.679, 62.937 109.039, 62.782 109.086 C 62.627 109.133, 61.204 109.560, 59.619 110.034 M 92.843 110.406 C 91.112 111.304, 89.844 111.444, 89.208 110.808 C 88.670 110.270, 87.166 109.981, 85.865 110.165 C 83.576 110.489, 83.491 110.828, 83.215 120.750 L 82.930 131 86.465 131 L 90 131 90 123.468 C 90 116.575, 90.191 115.863, 92.250 115.086 C 96.692 113.409, 98 115.331, 98 123.535 L 98 131 101 131 L 104 131 104 122.674 C 104 115.317, 103.738 114.109, 101.750 112.289 C 98.565 109.374, 95.910 108.813, 92.843 110.406 M 114.212 110.153 C 105.795 112.518, 104.515 125.295, 112.225 129.996 C 116.158 132.394, 118.855 132.505, 123.725 130.471 L 127.385 128.941 125.360 126.916 C 123.615 125.171, 122.971 125.056, 120.708 126.087 C 118.495 127.096, 117.643 126.986, 115.291 125.392 L 112.500 123.500 119.999 123.201 C 124.123 123.037, 127.827 122.573, 128.229 122.171 C 129.440 120.960, 127.160 114.494, 124.752 112.307 C 121.881 109.700, 118.375 108.984, 114.212 110.153 M 141.250 110.491 C 139.463 111.268, 138 111.475, 138 110.952 C 138 110.428, 136.650 110, 135 110 L 132 110 132 124.566 L 132 139.133 134.750 138.816 C 137.270 138.526, 137.526 138.101, 137.806 133.732 C 138.105 129.060, 138.154 128.995, 140.278 130.482 C 143.581 132.795, 147.592 132.336, 151.046 129.250 C 157.110 123.831, 155.685 113.438, 148.466 110.421 C 144.467 108.751, 145.272 108.743, 141.250 110.491 M 166.500 109.733 C 156.614 112.208, 154.568 124.718, 163.190 129.974 C 167.166 132.399, 170.099 132.522, 174.470 130.447 C 183.630 126.100, 182.553 113.806, 172.685 110.067 C 169.722 108.944, 169.663 108.941, 166.500 109.733 M 209.500 109.744 C 206.297 110.484, 204 113.097, 204 116 C 204 119.263, 206.345 121.533, 210.932 122.711 C 212.820 123.195, 214.544 124.133, 214.765 124.795 C 215.392 126.675, 212.018 127.445, 208.679 126.185 C 206.473 125.352, 205.294 125.341, 204.327 126.144 C 202.216 127.895, 202.752 128.998, 206.468 130.551 C 211.295 132.568, 215.273 132.360, 218.365 129.927 C 222.237 126.882, 221.970 122.562, 217.750 119.989 C 215.963 118.899, 213.739 118.006, 212.809 118.004 C 210.714 117.999, 209.455 116.145, 210.700 114.900 C 211.268 114.332, 212.900 114.418, 214.921 115.122 C 218.113 116.235, 219.929 115.397, 219.985 112.785 C 220.022 111.027, 212.894 108.960, 209.500 109.744 M 73 120.500 L 73 131 76 131 L 79 131 79 120.500 L 79 110 76 110 L 73 110 73 120.500 M 194 120.500 L 194 131 197 131 L 200 131 200 120.500 L 200 110 197 110 L 194 110 194 120.500 M 140.219 115.559 C 135.973 118.533, 138.275 127, 143.329 127 C 145.746 127, 149 123.380, 149 120.691 C 149 115.806, 144.022 112.896, 140.219 115.559 M 167.242 115.089 C 166 115.558, 164.459 117.093, 163.818 118.500 C 162.835 120.658, 162.970 121.483, 164.682 123.779 C 167.194 127.146, 169.375 127.640, 172.549 125.560 C 174.993 123.959, 175.848 119.816, 174.235 117.400 C 172.837 115.306, 169.546 114.219, 167.242 115.089 M 114 116.500 C 112.920 117.801, 113.451 118, 118 118 C 122.549 118, 123.080 117.801, 122 116.500 C 121.315 115.675, 119.515 115, 118 115 C 116.485 115, 114.685 115.675, 114 116.500 M 52.392 123.422 C 50.836 127.477, 58.403 132.710, 64.240 131.615 C 66.197 131.248, 68.300 130.344, 68.912 129.606 C 70.538 127.647, 67.588 125.552, 63.581 125.821 C 61.403 125.968, 59.748 125.379, 58.518 124.020 C 56.398 121.677, 53.181 121.363, 52.392 123.422" stroke="none" fill="#14246c" fill-rule="evenodd"/></svg>