<svg width="28" height="28" viewBox="0 0 28 28" fill="none" xmlns="http://www.w3.org/2000/svg">
<path d="M21.5949 5.56582C19.4751 3.43471 16.6525 2.26714 13.6486 2.26714C7.45928 2.26714 2.4149 7.31151 2.4149 13.5008C2.4149 15.4845 2.93635 17.4116 3.91121 19.1119L2.32422 24.9385L8.27545 23.3742C9.91912 24.2697 11.7668 24.7458 13.6486 24.7458C19.8378 24.7458 24.8822 19.7014 24.8822 13.5121C24.8822 10.5082 23.7146 7.68559 21.5949 5.56582ZM13.6486 22.8414C11.9709 22.8414 10.3272 22.388 8.88757 21.5378L8.5475 21.3337L5.01077 22.2633L5.95163 18.8172L5.72492 18.4658C4.7954 16.9808 4.29663 15.2578 4.29663 13.5008C4.29663 8.35439 8.49083 4.16019 13.6372 4.16019C16.1311 4.16019 18.4776 5.13506 20.2346 6.90343C22.003 8.67179 22.9665 11.0183 22.9665 13.5121C22.9892 18.6585 18.795 22.8414 13.6486 22.8414ZM18.7723 15.8586C18.4889 15.7226 17.1059 15.0424 16.8566 14.9404C16.5958 14.8497 16.4145 14.8044 16.2218 15.0764C16.029 15.3598 15.4963 15.9946 15.3376 16.176C15.1789 16.3687 15.0088 16.3914 14.7254 16.244C14.4421 16.108 13.5352 15.8019 12.4696 14.8497C11.6308 14.1016 11.0754 13.1834 10.9053 12.9C10.7466 12.6166 10.8827 12.4692 11.03 12.3219C11.1547 12.1972 11.3134 11.9931 11.4494 11.8344C11.5855 11.6757 11.6421 11.5511 11.7328 11.3697C11.8235 11.177 11.7782 11.0183 11.7102 10.8822C11.6421 10.7462 11.0754 9.36327 10.8486 8.79648C10.6219 8.25237 10.3839 8.32039 10.2138 8.30905C10.0438 8.30905 9.86244 8.30905 9.66974 8.30905C9.47703 8.30905 9.1823 8.37706 8.92158 8.66046C8.6722 8.94385 7.94671 9.62399 7.94671 11.0069C7.94671 12.3899 8.95559 13.7275 9.09162 13.9089C9.22764 14.1016 11.0754 16.9355 13.8866 18.1484C14.5554 18.4431 15.0769 18.6132 15.4849 18.7379C16.1537 18.9532 16.7659 18.9192 17.2533 18.8512C17.7974 18.7719 18.9196 18.1711 19.1464 17.5136C19.3844 16.8561 19.3844 16.3007 19.3051 16.176C19.2257 16.0513 19.0557 15.9946 18.7723 15.8586Z" fill="#E10098"/>
</svg>
